#!OML:ASF F:\VICON\USERDATA\INSTALL\rory3\rory3.ASF
:FULLY-SPECIFIED
:DEGREES
73
root 0.10600273897232743 17.72637357471407 30.11325968058792 -0.09985357539827788 -6.4186696385055 -7.17236577566804
lfemur -27.95644482398165 -7.7407588851892 -7.864907953458488
ltibia 16.260301794363784
lfoot -11.813256545946288 9.556281275739739
ltoes -1.8230247165672384
rfemur 8.34878072411177 5.887134496043995 34.50570099989188
rtibia 22.76600171836681
rfoot -9.672240169665463 -2.979443155794038
rtoes 8.18391624570776
lowerback 8.221873526329142 2.393087188813882 7.9588342765807925
upperback -0.07882626211216472 4.049391410931178 1.7229320437887687
thorax -4.654849924681763 1.8235153239942532 -3.0011746131133723
lowerneck -16.38742206811869 -2.9170228037252777 -1.5108022683137754
upperneck 19.968270249916216 -3.9902507729407857 1.588452141520683
head 9.01138355758198 -1.8280837802378929 0.30293371375828704
lclavicle -4.533851670398866e-16 -7.764982111144171e-16
lhumerus -37.68283230279431 10.912280841193262 78.85210299477308
lradius 20.323975149792112
lwrist 2.9515893913908413
lhand -28.925617284051523 19.532131743321166
lfingers 7.12502
lthumb -2.344987418462448 49.22407233912714
rclavicle -4.533851669842944e-16 -7.764982110708679e-16
rhumerus -22.512057409893593 -11.689985582483768 -81.51025221968055
rradius 29.328471819279397
rwrist -3.0368132438349633
rhand -18.48722977575464 23.935076261535425
rfingers 7.12502
rthumb 7.768321037999772 -5.920509738023237
74
root 0.15827788872992954 17.685624303382127 30.407285276735948 -0.48108972477322487 -6.493911094826585 -7.141841497636108
lfemur -26.677501964566233 -8.052123620139517 -8.369880683069777
ltibia 10.103802527185305
lfoot -10.20508412820719 7.821200775900455
ltoes -2.3427081166013095
rfemur 10.116168591029425 5.902645159320867 34.16258819681822
rtibia 23.961138610047094
rfoot -9.295412161673282 -2.061763534312611
rtoes 8.025210987228819
lowerback 8.207775987282135 2.424451285782954 7.755462066767747
upperback -0.12472213483030108 4.052470476356486 1.6512531368647485
thorax -4.728593192573164 1.821316750196845 -2.9105800918052402
lowerneck -16.34216940929868 -2.9795862072927934 -1.5332602754802451
upperneck 19.938205524280605 -4.120696106337093 1.769592833422097
head 9.003806366929343 -1.8773994599069066 0.3621536978358323
lclavicle -4.533851670389656e-16 -7.764982111130455e-16
lhumerus -38.318158671869185 12.626315253112177 77.96735786287472
lradius 18.34057138885585
lwrist 1.351850683315929
lhand -28.286712241068496 22.146266018419592
lfingers 7.12502
lthumb -1.702201054127672 51.805151795613746
rclavicle -4.53385166992427e-16 -7.764982110764283e-16
rhumerus -22.516577230089045 -12.095503549524324 -81.37561225816438
rradius 29.034815692277533
rwrist -2.6206057641068004
rhand -18.53410686128485 23.93032880457251
rfingers 7.12502
rthumb 7.728307217131629 -5.966935999033362
75
root 0.2187695038458431 17.737892101635858 30.37750013672619 -1.3631570334462404 -5.808911820046184 -6.720950821541288
lfemur -27.466333697166363 -4.861848954622921 -10.979908446829455
ltibia 13.568378638490529
lfoot -6.190329197204339 3.9368083877369733
ltoes -1.822309189017173
rfemur 11.607934655019324 5.603760670622236 33.46469318059011
rtibia 26.42219920941387
rfoot -7.229197248807443 -0.9851858696824651
rtoes 8.2901096775127
lowerback 8.399973809292266 2.353646453066757 7.271588687828169
upperback -0.13557478720196503 3.9656227500491257 1.5638549776873485
thorax -4.841196997445472 1.7976897603502415 -2.7404106876934975
lowerneck -16.247900144345405 -3.0532304347506503 -1.5884509058194283
upperneck 19.905236682278336 -4.257560819220418 1.9510134226521865
head 8.979580086878398 -1.9261873132160618 0.4128707532248756
lclavicle -4.533851670410586e-16 -7.764982111141543e-16
lhumerus -38.76524573499921 14.150130775162296 77.13315898437853
lradius 16.700470933909646
lwrist -0.40960210279152953
lhand -27.907040769451072 23.21379799832754
lfingers 7.12502
lthumb -1.2871402953788351 53.03655872591115
rclavicle -4.533851669933096e-16 -7.764982110765324e-16
rhumerus -22.993084445789435 -12.925572918792053 -81.08967467353781
rradius 28.59875703374751
rwrist -1.8882797578248818
rhand -18.57069267079849 23.675084351856224
rfingers 7.12502
rthumb 7.740536720019908 -6.151581818272197
76
root 0.28535006144652153 17.778823292289445 30.4491108040214 -2.1707207502361245 -5.356438263335504 -6.0697503224672635
lfemur -27.864306859558233 -3.418927281593362 -12.918406374556854
ltibia 19.60274883073926
lfoot -4.1365290067090665 0.25285368590788293
ltoes -1.398157773451828
rfemur 11.753000388316043 4.951409200256623 32.16807004388764
rtibia 31.411467907908513
rfoot -3.8512946981928913 0.431788245975703
rtoes 10.14178763196351
lowerback 8.6006634771446 2.3349185419658967 6.652620263570933
upperback -0.14042388062105965 3.8463309485806336 1.3969489160192825
thorax -4.986962096688964 1.7400104850177822 -2.429598172279052
lowerneck -16.13008767520039 -3.124186846562528 -1.6650141526797748
upperneck 19.95413607975735 -4.398940434374386 2.1657978983616113
head 8.982759356217437 -1.9797703742678348 0.4851177039030419
lclavicle -4.533851670438083e-16 -7.764982111152691e-16
lhumerus -39.170794635531664 15.22660055157813 76.42254194883486
lradius 15.406471290715862
lwrist -2.3581877936779234
lhand -26.70016436053139 25.903236343989974
lfingers 7.12502
lthumb -0.01677902587615887 55.87059929904289
rclavicle -4.533851670022054e-16 -7.764982110826244e-16
rhumerus -23.64885396314357 -14.048817030611161 -80.75686763114213
rradius 28.015811092220368
rwrist -1.0166348875867124
rhand -18.54887109455847 23.46572904945213
rfingers 7.12502
rthumb 7.751529171545285 -6.378240712214561
